<svg data-v-423bf9ae="" xmlns="http://www.w3.org/2000/svg" viewBox="0 0 2120747099464.9001 2120747099538" class="iconAbove"><!----><!----><!----><g data-v-423bf9ae="" id="840ffabc-1233-4567-8c08-3cb6d68a572f" fill="black" transform="matrix(4.72440951977241,0,0,4.72440951977241,1060373528532.4803,2120747057129.7651)"><path d="M6.78 9.42L7.03 9.00L2.84 6.30L7.03 3.58L6.78 3.18L1.26 6.01L1.44 6.78ZM15.20-0.25L15.08-0.38L14.42-0.38L8.12 12.17L8.29 12.32L8.90 12.32ZM21.92 6.78L22.11 6.01L16.59 3.18L16.34 3.58L20.52 6.30L16.34 9.00L16.59 9.42Z"></path></g><!----><g data-v-423bf9ae="" id="50a8a60b-d0d6-40de-acc6-9a0acd666641" transform="matrix(153505.23333333334,0,0,153505.23333333334,5299.0499267578125,5299.0499267578125)" stroke="none" fill="black"><path d="M253102 0h13562369v13815471H0V0h253102zm4567446 6654633h4174375L6907736 2480258 4820548 6654633zm4427478 506205H4567446l-2425323 4850463-450725-225362 4990975-9981950 225363-450726 225362 450726 4990975 9981950-450725 225362-2425322-4850463zm4061241-6654633H506205v12803062h12803062V506205z"></path></g><!----></svg>