<svg data-v-423bf9ae="" xmlns="http://www.w3.org/2000/svg" viewBox="0 0 2120747099464.9001 2120747099538" class="iconAbove"><!----><!----><!----><g data-v-423bf9ae="" id="e5f43e38-6307-450a-8709-0c7dfd4e7189" fill="#000000" transform="matrix(4.72440951977241,0,0,4.72440951977241,1060373528532.4803,2120747057129.7651)"><path d="M6.78 9.42L7.03 9.00L2.84 6.30L7.03 3.58L6.78 3.18L1.26 6.01L1.44 6.78ZM15.20-0.25L15.08-0.38L14.42-0.38L8.12 12.17L8.29 12.32L8.90 12.32ZM21.92 6.78L22.11 6.01L16.59 3.18L16.34 3.58L20.52 6.30L16.34 9.00L16.59 9.42Z"></path></g><defs data-v-423bf9ae=""><linearGradient data-v-423bf9ae="" gradientTransform="rotate(25)" id="5b672258-122c-4521-9414-03a14560cd91" x1="0%" y1="0%" x2="100%" y2="0%"><stop data-v-423bf9ae="" offset="0%" style="stop-color: rgb(101, 102, 206); stop-opacity: 1;"></stop><stop data-v-423bf9ae="" offset="100%" style="stop-color: rgb(219, 193, 208); stop-opacity: 1;"></stop></linearGradient></defs><g data-v-423bf9ae="" id="adccb13a-6e3e-4339-a1eb-79ff895480e1" transform="matrix(153505.23333333334,0,0,153505.23333333334,5299.0499267578125,5299.0499267578125)" stroke="none" fill="url(#5b672258-122c-4521-9414-03a14560cd91)"><path d="M253102 0h13562369v13815471H0V0h253102zm4567446 6654633h4174375L6907736 2480258 4820548 6654633zm4427478 506205H4567446l-2425323 4850463-450725-225362 4990975-9981950 225363-450726 225362 450726 4990975 9981950-450725 225362-2425322-4850463zm4061241-6654633H506205v12803062h12803062V506205z"></path></g><!----></svg>