<svg data-v-fde0c5aa="" xmlns="http://www.w3.org/2000/svg" viewBox="0 0 300 300" class="iconAbove"><!----><defs data-v-fde0c5aa=""><!----></defs><rect data-v-fde0c5aa="" fill="transparent" x="0" y="0" width="300px" height="300px" class="logo-background-square"></rect><defs data-v-fde0c5aa=""><!----></defs><g data-v-fde0c5aa="" id="7f738769-9bfe-460f-8e09-1a75f310a324" fill="#000000" transform="matrix(5.301837349966815,0,0,5.301837349966815,88.04802960495479,194.68136499237997)"><path d="M6.78 9.42L7.03 9.00L2.84 6.30L7.03 3.58L6.78 3.18L1.26 6.01L1.44 6.78ZM15.20-0.25L15.08-0.38L14.42-0.38L8.12 12.17L8.29 12.32L8.90 12.32ZM21.92 6.78L22.11 6.01L16.59 3.18L16.34 3.58L20.52 6.30L16.34 9.00L16.59 9.42Z"></path></g><defs data-v-fde0c5aa=""><linearGradient data-v-fde0c5aa="" gradientTransform="rotate(25)" id="82e893ed-2e5c-492a-bcfa-f1071c9be224" x1="0%" y1="0%" x2="100%" y2="0%"><stop data-v-fde0c5aa="" offset="0%" stop-color="#6566CE" stop-opacity="1"></stop><stop data-v-fde0c5aa="" offset="100%" stop-color="#DBC1D0" stop-opacity="1"></stop></linearGradient></defs><g data-v-fde0c5aa="" id="3fbc9007-546d-4a04-8abe-37432d8ba0b8" stroke="none" fill="url(#82e893ed-2e5c-492a-bcfa-f1071c9be224)" transform="matrix(0.000009747526281707418,0,0,0.000009747526281707418,82.66666666666667,40)"><path d="M253102 0h13562369v13815471H0V0h253102zm4567446 6654633h4174375L6907736 2480258 4820548 6654633zm4427478 506205H4567446l-2425323 4850463-450725-225362 4990975-9981950 225363-450726 225362 450726 4990975 9981950-450725 225362-2425322-4850463zm4061241-6654633H506205v12803062h12803062V506205z"></path></g><!----></svg>